<svg version="1.2" xmlns="http://www.w3.org/2000/svg" viewBox="0 0 512 512" width="100" height="100">
	<title>New Project</title>
	<style>
		.s0 { fill: #ffffff } 
	</style>
	<path id="Path 0" class="s0" d="m266.5 21c-2.8 0.4-7.5 1.4-10.5 2.3-3 0.9-6.5 2.6-7.6 3.9-1.2 1.3-2.4 3.5-2.8 5.1-0.3 1.6 0 4.2 0.9 6.2 1.2 2.8 2.7 4 7.2 6 3.2 1.4 8 3.7 10.8 5 2.7 1.4 7.9 4.4 11.5 6.7 3.6 2.3 10.6 8.3 15.5 13.3 5 4.9 11.6 12.8 14.7 17.5 3.1 4.7 6.4 10.2 7.5 12.3l1.8 3.9c-27.1 26.3-33.4 33.2-33.7 34.8-0.3 1.4-0.3 3.8 0 5.5 0.5 2.3 8.5 10.8 34 36 18.4 18.1 34.6 33.8 36.1 34.7 2.2 1.5 5 1.8 16.9 1.8h14.2c0 23.3 0.4 27.8 1.4 29.8 0.8 1.5 9.5 10.6 19.3 20.3 9.8 9.7 18.9 18.4 20.3 19.3 1.4 0.9 4.2 1.6 6.3 1.6 3.5 0 5.4-1.7 41.3-36.8 20.6-20.2 38.2-37.7 39-39 0.8-1.2 1.4-4.1 1.4-6.5 0-4.1-0.4-4.5-19.3-23.5-10.5-10.6-20.7-19.9-22.4-20.7-2.4-1.1-7-1.5-17.3-1.5h-14c-1.6-6.6-3-11.4-4.1-15-1.1-3.6-4-10.6-6.5-15.5-2.5-4.9-7.5-13.2-11.2-18.4-3.7-5.2-13-15.8-20.7-23.6-7.7-7.7-19.4-18.6-26-24.1-6.6-5.5-16.3-13-21.5-16.6-5.2-3.6-12.9-8.3-17-10.5-4.1-2.3-11.6-5.7-16.5-7.6-4.9-2-13.6-4.5-19.2-5.6-5.7-1.2-13.6-2-17.5-2-4 0.1-9.5 0.5-12.3 0.9zm-115.2 268.7c-69.7 65.7-130.8 123.3-135.6 128.1-6.4 6.3-9.7 10.5-12 15.2-3 6.1-3.2 7.1-3.2 17.5 0 10.2 0.2 11.5 3.1 17.5 1.8 3.8 5.1 8.6 8.1 11.5 2.8 2.8 7.5 6.2 10.4 7.8 3 1.5 8.6 3.2 12.4 3.9 5.4 0.9 8.5 0.8 13.5-0.1 3.6-0.7 9.1-2.6 12.3-4.2 4.8-2.4 15.3-12.6 64-61.6 32.1-32.4 90.9-91.8 130.7-132 39.9-40.3 72.6-73.6 72.7-74 0.2-0.5-10.9-11.7-24.6-24.9l-24.9-24.2z"/>
</svg>