<svg version="1.2" xmlns="http://www.w3.org/2000/svg" viewBox="0 0 200 200" width="200" height="200">
	<title>New Project</title>
	<style>
		.s0 { fill: #ffffff } 
	</style>
	<path id="Path 0" fill-rule="evenodd" class="s0" d="m69.5 0.1c6.8-0.1 13.3 0.5 17 1.4 3.3 0.8 10.2 3.5 15.3 6 7.4 3.6 10.7 6 16.9 12.3 4.3 4.2 9.5 10.6 11.6 14.2 2.1 3.6 4.9 10.1 6.3 14.5 1.5 4.7 2.7 11.7 3.1 17 0.4 6.5 0.1 11.3-1.1 17.5-1 4.7-3.3 11.9-5.2 16-2 4.1-4.6 9-6 10.8-1.3 1.7-2.4 3.5-2.4 3.9 0 0.5 3.5 4.3 7.7 8.5 6 6 8.1 7.5 9.3 6.8 0.8-0.5 2.6-1 4-1 1.9 0 8.3 5.8 28.3 25.8 14.1 14.1 25.7 26.4 25.7 27.2 0 0.8-3.9 5.4-8.7 10.2-6.4 6.3-9.5 8.8-11.3 8.8-1.9 0-8.1-5.6-27.3-24.7-20.9-20.8-24.9-25.3-25-27.8-0.1-1.7 0.2-3.9 0.6-5 0.6-1.6-0.9-3.6-15.1-18l-3.4 2.7c-1.8 1.5-6.7 4.2-10.8 6.2-4.1 1.9-11.3 4.2-16 5.2-6.2 1.2-11 1.5-17.5 1.1-5.3-0.4-12.3-1.6-17-3.1-4.4-1.4-10.9-4.2-14.5-6.3-3.6-2.1-10-7.3-14.2-11.6-6.3-6.2-8.7-9.5-12.3-17-2.5-5-5.2-11.9-6-15.2-0.9-3.5-1.5-10.4-1.5-16.5 0-5.8 0.7-13.4 1.6-17 0.8-3.6 3.3-10.3 5.6-15 3.4-7 5.8-10.1 13.2-17.6 7.4-7.4 10.6-9.8 17.6-13.2 4.7-2.3 11.2-4.8 14.5-5.6 3.3-0.8 11-1.5 17-1.5zm-16.8 18c-3.4 1-8.9 3.6-12.2 5.7-3.3 2.1-8.1 6.1-10.6 8.8-2.5 2.7-5.7 6.9-7.2 9.4-1.4 2.5-3.6 7.2-4.7 10.5-1.2 3.3-2.4 9.6-2.7 14-0.4 5.7 0 10 1.2 15 0.9 3.8 3.3 10.2 5.3 14 2.3 4.4 6.1 9.4 10.2 13.4 3.7 3.6 9 7.5 12.5 9.2 3.3 1.6 8.5 3.6 11.5 4.4 3 0.8 9.1 1.5 13.5 1.5 4.4 0 10.6-0.7 13.8-1.5 3.1-0.8 8.5-2.9 12-4.6 3.7-1.9 8.8-5.8 12.8-9.8 4-4 7.9-9.1 9.8-12.9 1.7-3.4 3.8-8.8 4.6-12 0.8-3.1 1.5-9.3 1.5-13.7 0-4.4-0.7-10.5-1.5-13.5-0.8-3-2.8-8.2-4.4-11.5-1.7-3.5-5.6-8.8-9.2-12.5-4-4.1-9-7.9-13.4-10.2-3.8-2-9.9-4.4-13.5-5.2-3.6-0.9-9.2-1.5-12.5-1.4-3.3 0-7 0.3-8.3 0.6-1.3 0.3-5.1 1.3-8.5 2.3z"/>
</svg>