<svg version="1.2" xmlns="http://www.w3.org/2000/svg" viewBox="0 0 512 512" width="512" height="512">
	<title>New Project</title>
	<style>
		.s0 { fill: #ffffff } 
	</style>
	<path id="Path 0" class="s0" d="m178 48.1c5.6-0.1 11.5 0.5 14.5 1.3 2.8 0.8 50.2 23.8 105.5 51.1 55.3 27.3 101 50.1 101.5 50.6 0.6 0.6 0.1 0.9-1.5 0.9-1.4 0-6.8 1.2-12 2.6-5.2 1.4-13.3 4.3-18 6.5-4.7 2.2-13 7-18.5 10.7-5.6 3.7-14.8 11.3-20.9 17.2-6 5.8-14.1 14.8-18 20-3.9 5.2-9.5 13.6-12.3 18.5-2.8 4.9-6.8 13.1-8.8 18-2 4.9-4.5 12.6-5.6 17-1.1 4.4-2.4 12.3-2.9 17.5-0.5 5.2-1 13.4-1 18.2 0 4.9-0.2 8.8-0.5 8.8-0.3 0-16.4-8-71.3-35.5l-0.7-5.5c-0.3-3-1.5-7-2.6-8.8-1.5-2.6-5.4-5-20.7-12.6-10.3-5.1-20.1-9.6-21.7-10-1.6-0.3-4.6-0.2-6.5 0.4-1.9 0.6-4.6 2.2-8.5 6.1l-83.5-41.6v-16.8c0-11.2 0.5-19.2 1.6-24.4 0.8-4.3 2.7-11.2 4-15.3 1.4-4.1 4.7-12 7.4-17.5 2.6-5.5 7-13.4 9.7-17.5 2.7-4.1 8.3-11.5 12.5-16.5 4.1-5 11.3-12.2 15.9-16.2 4.6-3.9 12.2-9.5 16.9-12.5 4.7-2.9 12.1-6.8 16.5-8.6 4.4-1.7 10.7-3.8 14-4.6 3.3-0.8 10.3-1.5 15.5-1.5zm230 118c2.5 0 7.6 0.6 11.5 1.4 3.9 0.9 8.8 2.6 11 3.9 2.2 1.3 6.2 4.8 8.8 7.7 3.6 4 5.4 7.1 6.8 11.9 1.6 5.4 1.9 9.5 1.9 40.5l-75.5 37.8c-41.5 20.7-75.7 37.7-76 37.7-0.3 0-0.3-8-0.2-17.8 0.3-15.8 0.7-18.6 3.1-26.7 1.5-4.9 4.7-13.3 7.2-18.5 2.5-5.2 7.5-14 11.2-19.5 3.7-5.5 11.2-14.7 16.7-20.4 5.5-5.7 13.1-12.7 17-15.6 3.9-2.8 10.6-7.3 15-9.8 4.4-2.5 12.1-6 17-7.6 4.9-1.7 11.5-3.4 14.5-3.9 3-0.6 7.5-1 10-1.1zm-343.5 50.9c0.3 0 18.2 8.9 79.3 39.5l0.4 13c0.3 11.3 0.6 13.5 2.6 16.7 1.9 3.3 4.6 5 21 13.2 10.3 5.1 19.9 9.6 21.5 10 1.5 0.3 4.4 0.2 6.5-0.3 2.3-0.6 5.1-2.5 7.5-5 3.1-3.4 3.8-5 4.2-9.6 0.3-3 0.7-5.5 1-5.5 0.3 0 16.5 8 71.5 35.5v75.8c0 41.6-0.2 75.7-0.5 75.7-0.3 0-45.9-22.7-101.5-50.5-55.5-27.8-102.5-51.8-104.2-53.4-1.8-1.5-4.6-5.3-9.3-13.6l-0.3-70.8c-0.1-38.9 0-70.7 0.3-70.7zm382.8 32.1c0.4-0.1 0.6 31.7 0.2 141.4l-3 5.4c-1.6 2.9-4.5 6.7-6.3 8.2-1.7 1.6-34.2 18.4-72.2 37.4-37.9 19-69.2 34.5-69.5 34.5-0.3 0-0.6-34.1-0.9-151.5l75.4-37.7c41.5-20.7 75.8-37.7 76.3-37.7z"/>
</svg>