<svg version="1.2" xmlns="http://www.w3.org/2000/svg" viewBox="0 0 225 225" width="225" height="225">
	<title>New Project</title>
	<style>
		.s0 { opacity: 1;fill: #ffffff } 
	</style>
	<path id="Path 0" fill-rule="evenodd" class="s0" d="m115.5 0.4c15 0.3 18.1 0.7 26 3 4.9 1.5 12.2 4 16 5.6 3.8 1.6 11.3 5.7 16.5 9.2 5.3 3.4 13.3 10 18.1 14.7 4.7 4.8 11.3 12.8 14.7 18.1 3.5 5.2 7.6 12.7 9.2 16.5 1.6 3.8 4.1 11 5.6 16 2.7 8.6 2.8 10 2.8 29 0 19-0.1 20.4-2.8 29-1.5 4.9-4 12.2-5.6 16-1.6 3.8-5.7 11.3-9.2 16.5-3.4 5.3-10 13.3-14.7 18.1-4.8 4.7-12.8 11.3-18.1 14.7-5.2 3.5-12.7 7.6-16.5 9.2-3.8 1.6-11.1 4.1-16 5.6-8.6 2.7-10 2.8-29 2.8-19 0-20.4-0.1-29-2.8-5-1.5-12.2-4-16-5.6-3.8-1.6-11.3-5.7-16.5-9.2-5.3-3.4-13.3-10-18.1-14.7-4.7-4.8-11.3-12.8-14.7-18.1-3.5-5.2-7.6-12.7-9.2-16.5-1.6-3.8-4.1-11.1-5.6-16-2.7-8.6-2.8-10-2.8-29 0-19 0.1-20.4 2.8-29 1.5-5 4-12.2 5.6-16 1.6-3.8 5.6-11 8.9-16 3.2-5 8.6-11.9 11.8-15.5 3.3-3.6 9.3-9.1 13.4-12.2 4.1-3.1 11-7.7 15.4-10.2 4.4-2.5 12.7-6.1 18.5-8 5.8-2 13-4 16-4.5 3-0.5 13.2-0.8 22.5-0.7zm-23.5 49.5c-3 1.1-7.8 3.5-10.5 5.4-2.8 1.9-6.8 5.6-9.1 8.3-2.2 2.7-5 7.5-6.2 10.6-1.2 3.2-2.3 7.7-2.5 10l-0.2 4.3c14 1.8 19.9 2.4 22.2 2.4 3.5 0.1 4.3-0.2 4.3-1.7 0-0.9 1.1-4 2.3-6.7 1.3-2.8 4.1-6.5 6.3-8.2 2.5-2.1 5.9-3.7 9.4-4.5 4.3-0.9 6.7-0.9 11 0 3 0.7 7 2.4 8.7 3.7 2.1 1.6 3.9 4.3 5 7.2 1.3 3.9 1.4 5.5 0.5 8.5-0.9 2.8-3.4 5.8-9.4 11-4.6 4-10.8 9.8-13.8 12.8-3.1 3-6.6 7.7-7.9 10.5-1.3 2.8-2.8 8.9-3.5 13.8-0.8 6.4-0.8 9.2 0 10.5 1 1.5 2.8 1.7 13.5 1.7h12.4c0.9-10.8 1.6-14.9 2.2-16 0.6-1.1 6.4-6.8 12.9-12.6 7.5-6.6 13.5-12.9 16.2-17 2.7-4.1 4.6-8.4 5.3-11.9 0.6-3 0.8-7.5 0.5-10-0.4-2.5-1.9-7.2-3.5-10.5-1.6-3.6-4.9-8.2-8.2-11.3-3-3-8-6.6-11.4-8.2-3.3-1.5-8.3-3.2-11-3.8-2.7-0.6-7.7-1.3-11-1.5-3.3-0.3-8.9-0.1-12.5 0.3-3.6 0.5-9 1.7-12 2.9zm9.3 118.2l0.2 10.4c17.8 0.4 21.4 0.1 22.3-0.8 1-0.9 1.2-4 1-11.7l-0.3-10.5c-20-0.5-22.6-0.3-23 0.8-0.3 0.7-0.4 6-0.2 11.8z"/>
</svg>